<svg xmlns="http://www.w3.org/2000/svg" version="1.1" xmlns:xlink="http://www.w3.org/1999/xlink" xmlns:svgjs="http://svgjs.dev/svgjs" viewBox="0 0 1920 1080" class="overflow-hidden rounded-md drop-shadow-lg transition duration-300" style="overflow: hidden; height: 85vh;"><rect width="1920" height="1080" fill="#050d3d"/><g clip-path="url(&quot;#SvgjsClipPath3715&quot;)"><g transform="matrix(0.9752553105798891,-0.6094071538681866,0.6094071538681866,0.9752553105798891,-305.7567220187209,587.7596839184514)"><path d="M0,-1080C12.997329644083996,-1005.9602966522186,83.47801572246702,-821.4744127654221,77.98397786450397,-635.7617799133121C72.48994000654092,-450.0491470612021,-22.452184889781385,-167.23416284915803,-32.96422714777829,34.27579711266026C-43.47626940577519,235.78575707447854,-8.785897629766335,388.9112642729565,14.911724316522552,573.2979798575977C38.60934626281144,757.684695442239,106.71842792773103,959.1813256962283,109.22150452995504,1140.5960906205078C111.72458113217905,1322.0108555447873,48.13376801819251,1491.885917840026,29.930183929866672,1661.7865694032746C11.726599841540832,1831.6872209665232,4.988363988311112,2076.964428233879,0,2160L 1920 2160 L 1920 -1080 Z" fill="url(&quot;#SvgjsLinearGradient3709&quot;)"/><path d="M320,-1080C316.28486236503977,-1017.954248968727,312.41182533276924,-874.0440223577721,297.7091741902388,-707.725493812362C283.00652304770836,-541.4069652669518,228.10936432944615,-264.71271616672925,231.78409314481752,-82.08882872753924C235.45882196018889,100.53505871165075,322.9226368095665,234.21153139642476,319.757547082467,388.0178308227781C316.5924573553675,541.8241302491314,195.73152865481492,699.6723154961563,212.79355478222067,840.7489678305806C229.8555809096264,981.8256201650048,402.3810831102728,1098.1267984615736,422.1297038469015,1234.4777448293235C441.87832458353023,1370.8286911970733,348.30689650980986,1504.600936841967,331.2852792019929,1658.8546460370799C314.263661894176,1813.1083552321927,321.88087986699884,2076.4757743395135,320,2160L 1920 2160 L 1920 -1080 Z" fill="url(&quot;#SvgjsLinearGradient3710&quot;)"/><path d="M640,-1080C638.5825127928454,-989.2228110570878,639.4669808256635,-697.0975795604741,631.495076757072,-535.336866342527C623.5231726884804,-373.57615312457983,588.8102440774103,-246.9858063775831,592.1685755884503,-109.43572069231755C595.5269070994902,28.114364992947998,632.1314544616273,126.05974966829277,651.645065823312,289.96364776906637C671.1586771849968,453.86754586984,722.111559417259,718.6723004692826,709.2502437585589,873.9876679123241C696.3889280998588,1029.3030353553656,574.3624900314154,1100.4617901844729,574.4771718711116,1221.8558524273155C574.5918537108079,1343.2499146701582,699.0178634419215,1445.9946834405987,709.9383347967362,1602.3520413693795C720.8588061515509,1758.7093992981604,651.6563891327894,2067.0586735615634,640,2160L 1920 2160 L 1920 -1080 Z" fill="url(&quot;#SvgjsLinearGradient3711&quot;)"/><path d="M960,-1080C978.326410326294,-932.9237725641615,1065.374338368137,-454.7401900499584,1069.9584619577638,-197.54263538496897C1074.5425855473907,59.65491928002044,998.1597245444083,223.5074982868008,987.5047415377612,463.18532798993647C976.8497585311142,702.8631576930721,1010.6126875075082,957.7218974988346,1006.0285639178813,1240.5243428338451C1001.4444403282545,1523.3267881688557,967.6714273196469,2006.754057138974,960,2160L 1920 2160 L 1920 -1080 Z" fill="url(&quot;#SvgjsLinearGradient3712&quot;)"/><path d="M1280,-1080C1286.5507146400337,-928.8739784746235,1306.5943185632505,-426.3599300787224,1319.3042878402027,-173.24387084774114C1332.014257117155,79.87218838324014,1378.0900917703937,171.42476593022667,1356.2598156617134,438.6963553858877C1334.4295395530332,705.9679448415488,1201.0326004650735,1143.5017251172064,1188.3226311881212,1430.385665886225C1175.612661911169,1717.2696066552437,1264.7204385313535,2038.3976109810376,1280,2160L 1920 2160 L 1920 -1080 Z" fill="url(&quot;#SvgjsLinearGradient3713&quot;)"/><path d="M1600,-1080C1609.8411106489698,-975.754503368754,1646.8481197366068,-634.1059380702216,1659.0466638938187,-454.52702021252384C1671.2452080510307,-274.9481023548262,1678.1915581526937,-175.6162697953943,1673.1912649432713,-2.5264928538139486C1668.190971733849,170.5632840877664,1655.1869219666485,392.66323849595074,1629.0449046372842,584.0116414369583C1602.9028873079199,775.3600443779658,1522.0084881720175,979.8894513345521,1516.3391609670855,1145.5639247922309C1510.6698337621535,1311.2383982499096,1581.0854682355398,1408.985802981736,1595.0289414076922,1578.058482183031C1608.9724145798446,1747.1311613843259,1599.1714902346152,2063.009747030505,1600,2160L 1920 2160 L 1920 -1080 Z" fill="url(&quot;#SvgjsLinearGradient3714&quot;)"/></g></g><defs><linearGradient x1="0.1" y1="0" x2="0" y2="1" id="SvgjsLinearGradient3709"><stop stop-color="#050d3d" offset="0"/><stop stop-color="#05163d" offset="0"/></linearGradient><linearGradient x1="0.1" y1="0" x2="0" y2="1" id="SvgjsLinearGradient3710"><stop stop-color="#0b1d87" offset="0"/><stop stop-color="#0b3287" offset="0.16666666666666666"/></linearGradient><linearGradient x1="0.1" y1="0" x2="0" y2="1" id="SvgjsLinearGradient3711"><stop stop-color="#112cd0" offset="0"/><stop stop-color="#114cd0" offset="0.3333333333333333"/></linearGradient><linearGradient x1="0.1" y1="0" x2="0" y2="1" id="SvgjsLinearGradient3712"><stop stop-color="#415aef" offset="0"/><stop stop-color="#4177ef" offset="0.5"/></linearGradient><linearGradient x1="0.1" y1="0" x2="0" y2="1" id="SvgjsLinearGradient3713"><stop stop-color="#8b9af5" offset="0"/><stop stop-color="#8bacf5" offset="0.6666666666666666"/></linearGradient><linearGradient x1="0.1" y1="0" x2="0" y2="1" id="SvgjsLinearGradient3714"><stop stop-color="#d5dafc" offset="0"/><stop stop-color="#d5e0fc" offset="0.8333333333333334"/></linearGradient><clipPath id="SvgjsClipPath3715"><rect width="1920" height="1080"/></clipPath></defs></svg>