<svg xmlns="http://www.w3.org/2000/svg" version="1.1" xmlns:xlink="http://www.w3.org/1999/xlink" xmlns:svgjs="http://svgjs.dev/svgjs" viewBox="0 0 1920 1080" class="overflow-hidden rounded-md drop-shadow-lg transition duration-300" style="overflow: hidden; height: 85vh;"><rect width="1920" height="1080" fill="#227746"/><g clip-path="url(&quot;#SvgjsClipPath4100&quot;)"><g transform="matrix(0.9752553105798891,-0.6094071538681866,0.6094071538681866,0.9752553105798891,-306.59879453034023,567.0212941999886)"><path d="M0,-1080C3.382464529120393,-1010.5822593924017,32.82391945411219,-836.4929379922115,20.29478717472236,-663.4935563544107C7.765654895332526,-490.4941747166098,-73.89894729151948,-217.51054098138962,-75.174793676339,-42.003710173194946C-76.45064006115851,133.50312063499973,17.270148602491783,253.66872076799825,12.639708865805218,389.54742849475736C8.009269129118653,525.4261362215165,-103.27918109821707,614.4081590335938,-102.95743209645838,773.2685361873597C-102.63568309469969,932.1289133411256,-19.91718055729556,1190.7352749524052,14.57020287635737,1342.7096914173526C49.0575863100103,1494.6841078823,106.39523565151875,1548.8999835466022,103.96686850545919,1685.1150349770435C101.53850135939963,1821.3300864074847,17.32781141757653,2080.852505829507,0,2160L 1920 2160 L 1920 -1080 Z" fill="url(&quot;#SvgjsLinearGradient4094&quot;)"/><path d="M320,-1080C312.2556171264513,-991.3025205165827,285.7591343077398,-729.1791288611589,273.5337027587079,-547.8151230994961C261.3082712096759,-366.45111733783324,223.32934342802685,-175.6581297414503,246.64741070580814,8.1840345699771C269.96547798358944,192.02619888140447,408.56191836686713,395.14501771223297,413.44210642539565,555.2378627690682C418.32229448392417,715.3307078259035,278.77809649463546,794.5662952097564,275.92853905697916,968.7411049109887C273.07898161932286,1142.915914612221,388.99951830895446,1401.7435717949606,396.34476179945796,1600.2867209764624C403.69000528996145,1798.8298701579643,332.7241269665763,2066.714453496077,320,2160L 1920 2160 L 1920 -1080 Z" fill="url(&quot;#SvgjsLinearGradient4095&quot;)"/><path d="M640,-1080C623.8229165510317,-984.729535518062,559.5008579838509,-659.0699529793019,542.9374993061899,-508.3772131083717C526.374140628529,-357.6844732374415,529.3046308455716,-329.1003890915907,540.6198479340342,-175.84356077441913C551.9350650224967,-22.586732457247564,592.3844638283539,240.34193043791754,610.8288018369648,411.16375679465784C629.2731398455757,581.9855831513981,631.1364623007178,721.7053129699589,651.2858759856992,849.0873973660227C671.4352896706807,976.4694817620866,750.2197644961103,1052.146579429236,731.7252839468534,1175.4562631710414C713.2308033975966,1298.7659469128469,555.6065400146335,1424.8548770120294,540.318992690158,1588.9454998168558C525.0314453656824,1753.0361226216821,623.386498781693,2064.824249969476,640,2160L 1920 2160 L 1920 -1080 Z" fill="url(&quot;#SvgjsLinearGradient4096&quot;)"/><path d="M960,-1080C970.1167229986053,-984.028856574575,1010.2914233097215,-669.2227108247673,1020.7003379916314,-504.17313944745024C1031.1092526735413,-339.12356807013316,1041.1637658782163,-218.74069563582498,1022.4534880914595,-89.70257173609724C1003.7432103047028,39.335552163630496,934.2540756871637,144.31714053276136,908.438671271091,270.0556039509162C882.6232668550184,395.794067369071,861.839420209416,493.24173301668634,867.561061595024,664.7282087728319C873.2827029806319,836.2146845289774,939.858165373011,1114.7991015617415,942.7685195847391,1298.974458487789C945.6788737964672,1483.1498154138364,882.151273462849,1626.2760934104151,885.0231868653924,1769.780350329117C887.8951002679358,1913.284607247819,947.5038644775655,2094.9633917215197,960,2160L 1920 2160 L 1920 -1080 Z" fill="url(&quot;#SvgjsLinearGradient4097&quot;)"/><path d="M1280,-1080C1285.7867837653262,-991.0877741831011,1323.0713505974425,-691.3238569569563,1314.720702591957,-546.5266450986071C1306.3700545864715,-401.7294332402579,1234.682354271411,-346.5616865351723,1229.8961119670876,-211.21672884990474C1225.1098696627641,-75.87177116463715,1291.5143936614904,93.90409548566319,1286.0032487660171,265.54310101299836C1280.4921038705438,437.1821065403335,1186.5369821166264,660.1455222744513,1196.8292425942482,818.6173043141064C1207.12150307187,977.0890863537614,1321.1853913840123,1054.4351762323738,1347.756811631748,1216.3737932509287C1374.3282318794836,1378.3124102694835,1367.5505660192864,1632.9779719672565,1356.2577640806617,1790.249006425435C1344.964962142037,1947.5200408836135,1292.7096273467769,2098.374834404239,1280,2160L 1920 2160 L 1920 -1080 Z" fill="url(&quot;#SvgjsLinearGradient4098&quot;)"/><path d="M1600,-1080C1585.1935912938134,-951.5386744100538,1526.352716852227,-584.103881669592,1511.1615477628795,-309.23204646032286C1495.970378673532,-34.36021125105373,1502.496266317097,295.09857416545134,1508.8529854639144,569.2310112556149C1515.2097046107317,843.3634483457786,1534.110693554436,1070.434411289928,1549.3018626437836,1335.5625760806588C1564.4930317331311,1600.6907408713896,1591.5503104406307,2022.5937626801099,1600,2160L 1920 2160 L 1920 -1080 Z" fill="url(&quot;#SvgjsLinearGradient4099&quot;)"/></g></g><defs><linearGradient x1="0.1" y1="0" x2="0" y2="1" id="SvgjsLinearGradient4094"><stop stop-color="#227746" offset="0"/><stop stop-color="#227738" offset="0"/></linearGradient><linearGradient x1="0.1" y1="0" x2="0" y2="1" id="SvgjsLinearGradient4095"><stop stop-color="#2ea25f" offset="0"/><stop stop-color="#2ea24c" offset="0.16666666666666666"/></linearGradient><linearGradient x1="0.1" y1="0" x2="0" y2="1" id="SvgjsLinearGradient4096"><stop stop-color="#40c87a" offset="0"/><stop stop-color="#40c863" offset="0.3333333333333333"/></linearGradient><linearGradient x1="0.1" y1="0" x2="0" y2="1" id="SvgjsLinearGradient4097"><stop stop-color="#6bd598" offset="0"/><stop stop-color="#6bd586" offset="0.5"/></linearGradient><linearGradient x1="0.1" y1="0" x2="0" y2="1" id="SvgjsLinearGradient4098"><stop stop-color="#97e1b6" offset="0"/><stop stop-color="#97e1aa" offset="0.6666666666666666"/></linearGradient><linearGradient x1="0.1" y1="0" x2="0" y2="1" id="SvgjsLinearGradient4099"><stop stop-color="#c2eed4" offset="0"/><stop stop-color="#c2eecd" offset="0.8333333333333334"/></linearGradient><clipPath id="SvgjsClipPath4100"><rect width="1920" height="1080"/></clipPath></defs></svg>