<svg xmlns="http://www.w3.org/2000/svg" version="1.1" xmlns:xlink="http://www.w3.org/1999/xlink" xmlns:svgjs="http://svgjs.com/svgjs" width="1440" height="560" preserveAspectRatio="none" viewBox="0 0 1440 560"><g mask="url(&quot;#SvgjsMask1388&quot;)" fill="none"><rect width="1440" height="560" x="0" y="0" fill="url(#SvgjsRadialGradient1389)"></rect><path d="M720 669.81C829.41 667.46 943.65 658.32 1023.89 583.89 1106.55 507.22 1140 392.74 1140.24 280 1140.48 166.98 1105.08 54.75 1025.12-25.12 945.18-104.91 832.95-139.29 720-139.66 606.68-140.04 490.36-109.81 412.91-27.09 337.4 53.59 328.93 169.5 327.13 280 325.29 393.02 322.51 517.66 402.75 597.25 482.82 676.68 607.26 672.22 720 669.81" fill="#1c538e"></path><path d="M720 532.23C790.8 530.71 864.72 524.79 916.64 476.64 970.12 427.03 991.77 352.95 991.92 280 992.07 206.87 969.17 134.25 917.43 82.57 865.71 30.94 793.08 8.7 720 8.45 646.67 8.21 571.41 27.77 521.3 81.3 472.43 133.5 466.96 208.5 465.79 280 464.6 353.13 462.8 433.78 514.72 485.28 566.53 536.67 647.05 533.79 720 532.23" fill="#2774c6"></path><path d="M720 394.65C752.18 393.96 785.78 391.27 809.38 369.38 833.69 346.83 843.53 313.16 843.6 280 843.67 246.76 833.26 213.75 809.74 190.26 786.23 166.79 753.22 156.68 720 156.57 686.67 156.46 652.46 165.35 629.68 189.68 607.47 213.41 604.98 247.5 604.45 280 603.91 313.24 603.09 349.9 626.69 373.31 650.24 396.67 686.84 395.36 720 394.65" fill="#488fdb"></path></g><defs><mask id="SvgjsMask1388"><rect width="1440" height="560" fill="#ffffff"></rect></mask><radialGradient cx="50%" cy="100%" r="912.14" gradientUnits="userSpaceOnUse" id="SvgjsRadialGradient1389"><stop stop-color="rgba(14, 42, 71, 1)" offset="0"></stop><stop stop-color="rgba(6, 31, 84, 1)" offset="1"></stop></radialGradient></defs></svg>